<?xml version="1.0" encoding="UTF-8" standalone="no"?>
<!-- Created with Inkscape (http://www.inkscape.org/) -->

<svg
   width="11.49301mm"
   height="11.209466mm"
   viewBox="0 0 11.49301 11.209466"
   version="1.1"
   id="svg818"
   inkscape:version="1.1 (ce6663b3b7, 2021-05-25)"
   sodipodi:docname="github_small.svg"
   xmlns:inkscape="http://www.inkscape.org/namespaces/inkscape"
   xmlns:sodipodi="http://sodipodi.sourceforge.net/DTD/sodipodi-0.dtd"
   xmlns="http://www.w3.org/2000/svg"
   xmlns:svg="http://www.w3.org/2000/svg">
  <sodipodi:namedview
     id="namedview820"
     pagecolor="#ffffff"
     bordercolor="#666666"
     borderopacity="1.0"
     inkscape:pageshadow="2"
     inkscape:pageopacity="0.0"
     inkscape:pagecheckerboard="0"
     inkscape:document-units="mm"
     showgrid="false"
     inkscape:zoom="9.4074074"
     inkscape:cx="15.466535"
     inkscape:cy="23.704724"
     inkscape:window-width="1920"
     inkscape:window-height="1015"
     inkscape:window-x="0"
     inkscape:window-y="0"
     inkscape:window-maximized="1"
     inkscape:current-layer="layer1" />
  <defs
     id="defs815" />
  <g
     inkscape:label="Ebene 1"
     inkscape:groupmode="layer"
     id="layer1"
     transform="translate(-102.70343,-139.29527)">
    <path
       d="m 108.44947,139.29527 c -3.17324,0 -5.74604,2.5728 -5.74604,5.74674 0,2.53895 1.64641,4.69265 3.92994,5.45289 0.28751,0.0526 0.39229,-0.12488 0.39229,-0.27728 0,-0.13617 -0.005,-0.49777 -0.008,-0.9772 -1.59844,0.34714 -1.93569,-0.77046 -1.93569,-0.77046 -0.26141,-0.66358 -0.63818,-0.84032 -0.63818,-0.84032 -0.52176,-0.35666 0.0395,-0.3496 0.0395,-0.3496 0.57679,0.0409 0.88018,0.59231 0.88018,0.59231 0.51259,0.87806 1.34515,0.62442 1.67252,0.47766 0.0522,-0.37147 0.20038,-0.62477 0.36478,-0.76835 -1.276,-0.14499 -2.61762,-0.63817 -2.61762,-2.84021 0,-0.62724 0.22402,-1.14018 0.59161,-1.54199 -0.0593,-0.14535 -0.25647,-0.72955 0.0561,-1.52083 0,0 0.4826,-0.15451 1.58045,0.58914 0.45826,-0.12735 0.95003,-0.1912 1.43863,-0.19332 0.48789,0.002 0.97966,0.066 1.43862,0.19332 1.09714,-0.74365 1.57868,-0.58914 1.57868,-0.58914 0.31362,0.79128 0.11642,1.37548 0.0572,1.52083 0.3683,0.40181 0.59091,0.91475 0.59091,1.54199 0,2.20768 -1.34373,2.69346 -2.62396,2.83563 0.20637,0.17744 0.39017,0.5281 0.39017,1.06433 0,0.76799 -0.007,1.38782 -0.007,1.57621 0,0.15381 0.10337,0.33267 0.39511,0.27658 2.28177,-0.76165 3.92677,-2.91395 3.92677,-5.45219 0,-3.17394 -2.57316,-5.74674 -5.7471,-5.74674"
       style="fill:#1b1817;fill-opacity:1;fill-rule:evenodd;stroke:none;stroke-width:0.352778"
       id="path22" />
  </g>
</svg>
