<?xml version="1.0" encoding="UTF-8" standalone="no"?>
<svg
   height="20"
   viewBox="0 0 14 20"
   width="14"
   fill="#000000"
   version="1.1"
   id="svg6"
   sodipodi:docname="questionmark_orange.svg"
   inkscape:version="1.1 (ce6663b3b7, 2021-05-25)"
   xmlns:inkscape="http://www.inkscape.org/namespaces/inkscape"
   xmlns:sodipodi="http://sodipodi.sourceforge.net/DTD/sodipodi-0.dtd"
   xmlns="http://www.w3.org/2000/svg"
   xmlns:svg="http://www.w3.org/2000/svg">
  <defs
     id="defs10" />
  <sodipodi:namedview
     id="namedview8"
     pagecolor="#ffffff"
     bordercolor="#666666"
     borderopacity="1.0"
     inkscape:pageshadow="2"
     inkscape:pageopacity="0.0"
     inkscape:pagecheckerboard="0"
     showgrid="false"
     inkscape:zoom="27.5"
     inkscape:cx="7"
     inkscape:cy="10"
     inkscape:window-width="1920"
     inkscape:window-height="1015"
     inkscape:window-x="0"
     inkscape:window-y="0"
     inkscape:window-maximized="1"
     inkscape:current-layer="svg6" />
  <path
     d="M -5,-2 H 19 V 22 H -5 Z"
     fill="none"
     id="path2" />
  <path
     d="M 7,0 C 3.14,0 0,3.14 0,7 0,12.25 7,20 7,20 7,20 14,12.25 14,7 14,3.14 10.86,0 7,0 Z M 7.88,13.75 H 6.13 V 12 h 1.75 z m 0,-2.87 H 6.13 C 6.13,8.04 8.75,8.26 8.75,6.5 8.75,5.54 7.96,4.75 7,4.75 6.04,4.75 5.25,5.54 5.25,6.5 H 3.5 C 3.5,4.57 5.07,3 7,3 c 1.93,0 3.5,1.57 3.5,3.5 0,2.19 -2.62,2.41 -2.62,4.38 z"
     id="path4"
     style="fill:#eeac55;fill-opacity:1" />
</svg>
